<?xml version="1.0" encoding="UTF-8"?>
<svg viewBox="0 0 207 216" xmlns="http://www.w3.org/2000/svg">
 <g fill="#fff">
  <path d="m77.535 134.83l10.769 6.4912 0.4354 12.622-13.68 6.928 4.6281 10.605 16.302-9.0493 0.4156 14.661-13.298 8.5072 5.6545 8.7713 13.521-9.4199 12.43 8.7121 6.0789-8.7557-11.519-7.4223-0.0832-14.43 14.351 8.0747 5.5586-8.9527-12.381-7.3638 0.5112-12.211 10.931-6.0442" fill-rule="evenodd" stroke="#000" stroke-width="4"/>
  <path d="m104.24 147.06l-36.72-19.688-1.3099-41.645 35.41-21.957 36.72 19.688 1.3098 41.645-35.41 21.957z" stroke-width="8"/>
 </g>
 <g stroke="#000" stroke-width="4">
  <g fill-rule="evenodd">
   <g fill="#fff">
    <path d="m130.55 75.632l-10.769-6.4912-0.4354-12.622 13.68-6.928-4.628-10.605-16.302 9.0493-0.4156-14.661 13.298-8.5072-5.6545-8.7713-13.521 9.4199-12.43-8.7121-6.0789 8.7557 11.519 7.4224 0.0832 14.43-14.351-8.0747-5.5587 8.9527 12.381 7.3638-0.3234 12.177-9.9058 5.2775"/>
    <path d="m91.658 67.478l-11.006 6.0807-11.148-5.9336 0.8401-15.311-11.498-1.2943-0.3143 18.643-12.905-6.9705-0.7185-15.77-10.424 0.5113 1.3974 16.419-13.76 6.4087 4.5432 9.6424 12.187-6.2643 12.538 7.143-14.168 8.391 4.9739 9.2903 12.568-7.0401 10.642 6.5157-0.4161 12.288"/>
    <path d="m116.42 142.99l11.006-6.0807 11.148 5.9337-0.8401 15.311 11.498 1.2943 0.3143-18.643 12.905 6.9705 0.7185 15.77 10.424-0.5113-1.3974-16.419 13.76-6.4087-4.5432-9.6424-12.187 6.2644-12.538-7.1431 14.168-8.391-4.9739-9.2903-12.568 7.0401-10.454-6.5496 0.3144-12.851"/>
   </g>
   <path d="m63.542 82.002l82.23 49.535" fill="none" stroke-linecap="round"/>
   <path d="m142.93 113.39l0.237-12.572 10.713-6.6879 12.84 8.383 6.8699-9.3103-15.988-9.5936 12.489-7.6904 14.016 7.2627 4.769-9.2826-14.918-6.9995 1.3299-15.121-10.622-0.8867-0.6686 13.687-12.455 7.2871-0.1826-16.466-10.533-0.3376-0.1869 14.404-11.375 5.541-10.207-6.6872" fill="#fff"/>
   <path d="m105.12 56.662l-2.6242 99.36" fill="none" stroke-linecap="round"/>
  </g>
  <g fill="#fff">
   <g fill-rule="evenodd">
    <path d="m65.152 97.079l-0.237 12.572-10.713 6.6879-12.84-8.383-6.8699 9.3103 15.988 9.5936-12.489 7.6904-14.016-7.2627-4.769 9.2826 14.918 6.9995-1.3299 15.121 10.622 0.8867 0.6686-13.687 12.455-7.2871 0.1826 16.466 10.533 0.3376 0.1869-14.404 10.898-6.0366 9.9853 6.5333"/>
    <path d="m62.248 130.71l84.818-47.879" stroke-linecap="round"/>
   </g>
   <path d="m131.87 123.28l-29.091 15.497-27.966-17.445 1.125-32.942 29.091-15.497 27.966 17.445-1.125 32.942z"/>
   <path d="m120.33 115.19l-16.757 9.3868-16.508-9.8183 0.2491-19.205 16.757-9.3868 16.508 9.8184-0.2491 19.205z"/>
  </g>
 </g>
</svg>
